<svg xmlns="http://www.w3.org/2000/svg" width="1024" height="1024" viewBox="0 0 1024 1024">
<g>
<path d="M 572.05 266.02 C524.33,266.10 517.22,266.42 517.64,267.50 C517.95,268.33 517.72,269.00 517.11,269.00 C516.46,269.00 516.00,270.87 516.00,273.47 C516.00,275.92 515.36,279.41 514.57,281.22 C513.36,284.00 512.21,286.94 511.50,289.00 C511.41,289.27 510.81,290.77 510.17,292.32 C509.52,293.86 509.00,296.30 509.00,297.74 C509.00,300.85 506.41,304.00 503.85,304.00 C502.83,304.00 502.00,304.45 502.00,305.00 C502.00,305.66 534.01,306.00 596.02,306.00 L 335.00 306.00 L 335.00 350.90 L 462.50 351.50 L 467.50 353.98 C470.25,355.34 474.34,358.29 476.59,360.54 C477.72,361.67 478.67,362.44 479.48,363.34 C484.37,368.78 484.00,378.95 484.01,499.93 L 484.01 529.68 C483.97,477.15 483.63,450.00 483.00,450.00 C482.45,450.00 482.00,451.36 482.00,453.02 C482.00,455.28 481.40,456.28 479.64,456.95 C476.34,458.20 471.24,465.52 464.05,479.31 C460.66,485.81 456.41,493.46 454.59,496.31 C452.77,499.17 450.93,502.62 450.50,504.00 C450.08,505.38 449.12,507.39 448.37,508.47 C447.34,509.95 447.05,519.70 447.01,559.90 L 447.01 511.28 L 447.00 389.06 L 318.50 388.50 L 313.29 386.14 C310.40,384.84 306.08,381.65 303.59,379.00 C296.06,370.95 295.87,369.47 296.21,323.84 L 296.50 284.50 L 299.39 279.29 C302.43,273.80 307.39,269.70 313.70,267.44 C316.85,266.32 350.84,266.08 511.62,266.04 C534.23,266.04 554.28,266.03 572.05,266.02 ZM 274.14 583.60 C268.91,579.74 222.93,534.87 219.83,530.60 C217.55,527.46 217.00,525.64 217.00,521.29 C217.00,516.17 217.27,515.60 221.94,510.69 C234.68,497.30 274.44,458.79 280.39,454.08 C283.54,451.58 285.21,451.00 289.21,451.00 C293.34,451.00 294.64,451.48 297.08,453.92 C299.56,456.41 300.00,457.63 300.00,462.06 L 300.00 467.27 L 275.75 490.98 C262.41,504.02 249.78,516.18 247.69,518.00 L 243.87 521.32 L 267.94 545.46 L 292.00 569.59 L 292.00 574.07 C292.00,579.17 290.17,582.34 285.99,584.51 C281.84,586.65 277.86,586.35 274.14,583.60 ZM 315.31 598.54 C311.78,597.00 309.00,592.54 309.00,588.41 C309.00,586.92 312.65,573.96 317.11,559.61 C321.56,545.25 325.87,531.25 326.68,528.50 C327.49,525.75 331.74,512.03 336.12,498.00 C340.50,483.98 345.26,468.74 346.69,464.15 C350.14,453.09 354.07,448.94 360.30,449.76 C365.91,450.50 368.66,452.44 370.05,456.66 C370.31,457.44 370.53,458.06 370.67,458.69 C371.28,461.51 370.22,464.69 363.71,485.50 C360.10,497.05 351.28,525.49 344.12,548.70 C336.96,571.90 330.40,592.26 329.54,593.93 C327.90,597.09 323.40,600.03 320.30,599.96 C319.31,599.94 317.07,599.30 315.31,598.54 ZM 362.37 583.13 C355.01,578.53 353.94,571.96 359.39,564.89 C361.25,562.48 371.38,552.24 381.89,542.14 C392.40,532.05 401.00,523.04 401.00,522.12 C401.00,521.21 396.92,516.42 391.93,511.48 C381.47,501.13 378.62,496.54 379.56,491.55 C380.78,485.05 389.35,480.55 394.93,483.48 C398.61,485.42 425.44,512.88 427.38,516.70 C429.26,520.41 429.43,523.73 427.95,527.64 C426.75,530.78 413.14,544.87 388.82,568.14 C370.46,585.70 368.37,586.89 362.37,583.13 ZM 718.04 272.03 C716.94,271.16 716.09,270.42 715.16,269.78 C714.41,269.27 713.61,268.82 712.59,268.43 C714.12,268.90 715.01,269.45 715.81,270.10 C716.50,270.67 717.12,271.30 718.04,272.03 ZM 540.13 660.00 C540.09,660.00 540.01,659.97 539.89,659.92 C540.17,659.82 540.39,658.21 540.56,653.91 C540.44,658.04 540.30,660.00 540.13,660.00 ZM 487.77 627.88 L 490.76 629.78 C495.25,632.63 499.45,635.28 503.34,637.74 C499.34,635.23 495.27,632.66 491.27,630.11 L 487.77 627.88 Z" fill="rgba(16,162,245,1)"/>
<path d="M 466.15 655.26 C464.71,654.35 463.45,653.55 462.41,652.88 C454.71,647.94 452.74,645.81 449.58,639.00 L 447.02 633.50 L 447.01 571.97 C447.00,521.60 447.25,510.09 448.37,508.47 C449.12,507.39 450.08,505.38 450.50,504.00 C450.93,502.62 452.77,499.17 454.59,496.31 C456.41,493.46 460.66,485.81 464.05,479.31 C471.24,465.52 476.34,458.20 479.64,456.95 C481.40,456.28 482.00,455.28 482.00,453.02 C482.00,451.36 482.45,450.00 483.00,450.00 C483.66,450.00 484.01,479.93 484.02,537.75 L 484.03 623.83 C484.02,623.76 484.01,623.69 484.00,623.62 C483.93,623.08 484.02,622.52 484.02,621.75 C484.01,619.69 483.55,618.00 483.00,618.00 C482.45,618.00 481.99,618.79 481.98,619.75 C481.97,621.80 479.68,628.65 478.69,629.65 C478.31,630.02 477.99,631.27 477.99,632.42 C477.98,633.56 475.96,637.88 473.50,642.00 C471.04,646.12 469.02,649.87 469.01,650.32 C468.99,651.67 466.29,653.96 465.57,653.23 C465.20,652.86 465.18,653.30 465.52,654.20 C465.66,654.56 465.89,654.93 466.15,655.26 ZM 648.52 306.00 L 596.02 306.00 C534.01,306.00 502.00,305.66 502.00,305.00 C502.00,304.45 502.83,304.00 503.85,304.00 C506.41,304.00 509.00,300.85 509.00,297.74 C509.00,296.30 509.52,293.86 510.17,292.32 C510.81,290.77 511.41,289.27 511.50,289.00 C512.21,286.94 513.36,284.00 514.57,281.22 C515.36,279.41 516.00,275.92 516.00,273.47 C516.00,270.87 516.46,269.00 517.11,269.00 C517.72,269.00 517.95,268.33 517.64,267.50 C517.13,266.17 527.96,266.00 611.41,266.00 C642.86,266.00 664.30,265.97 679.15,266.12 C674.64,266.12 669.50,266.14 663.62,266.16 C640.46,266.25 623.08,266.51 625.00,266.74 C633.91,267.80 633.70,272.17 623.65,294.00 C623.02,295.38 621.94,297.09 621.25,297.82 C620.56,298.55 620.00,299.68 620.00,300.33 C620.00,301.67 613.34,304.00 609.52,304.00 C608.13,304.00 607.00,304.45 607.00,305.00 C607.00,305.65 621.51,306.00 648.52,306.00 ZM 540.92 601.88 C540.93,580.51 540.89,552.74 540.78,517.75 C540.54,439.51 540.67,374.83 541.06,374.00 C541.45,373.17 542.82,370.10 544.09,367.17 C545.37,364.24 547.83,360.64 549.57,359.17 C554.17,355.26 556.40,353.49 558.04,352.44 C558.50,352.14 567.00,351.83 580.76,351.55 C578.73,351.83 579.73,352.24 581.50,352.86 C587.33,354.93 588.11,356.82 584.83,360.95 C583.55,362.56 581.04,365.86 579.26,368.28 C577.47,370.70 575.10,373.74 573.98,375.02 C572.86,376.31 571.68,378.41 571.36,379.68 C571.04,380.96 570.45,382.00 570.05,382.00 C569.65,382.00 567.59,385.71 565.48,390.25 C563.36,394.79 560.67,400.08 559.48,402.00 C558.30,403.92 557.07,406.40 556.76,407.50 C556.44,408.60 554.51,413.33 552.48,418.00 C550.44,422.67 547.84,428.92 546.70,431.88 C545.04,436.19 544.47,436.89 543.88,435.38 C543.17,433.59 543.13,433.59 542.90,435.50 C542.77,436.60 542.37,434.80 542.00,431.50 C541.63,428.20 541.21,477.92 541.05,542.00 C541.00,563.81 540.95,584.31 540.92,601.88 ZM 540.22 659.82 C540.59,658.21 540.81,645.52 540.89,619.03 C540.85,643.45 540.85,659.03 540.88,659.25 C540.95,659.70 540.80,659.93 540.22,659.82 ZM 534.86 698.39 C517.69,687.69 494.92,673.42 478.83,663.28 C487.27,668.52 499.64,676.26 513.18,684.78 C520.96,689.69 528.36,694.33 534.86,698.39 ZM 517.90 646.81 C526.90,652.37 534.30,656.83 537.86,658.84 C534.86,657.30 529.15,653.83 518.78,647.36 C518.48,647.17 518.19,646.99 517.90,646.81 ZM 712.36 268.35 C713.49,268.76 714.36,269.23 715.16,269.78 C716.09,270.42 716.94,271.16 718.04,272.03 C715.99,270.40 714.45,269.22 712.36,268.35 ZM 493.07 631.25 C496.02,633.13 498.99,635.01 501.94,636.86 C498.30,634.58 495.39,632.75 493.07,631.25 Z" fill="rgba(106,98,242,1)"/>
<path d="M 559.00 713.32 C558.17,712.97 537.56,700.13 513.18,684.78 C488.80,669.44 468.25,656.65 467.51,656.36 C466.76,656.08 465.87,655.11 465.52,654.20 C465.18,653.30 465.20,652.86 465.57,653.23 C466.29,653.96 468.99,651.67 469.01,650.32 C469.02,649.87 471.04,646.12 473.50,642.00 C475.96,637.88 477.98,633.56 477.99,632.42 C477.99,631.27 478.31,630.02 478.69,629.65 C479.68,628.65 481.97,621.80 481.98,619.75 C481.99,618.79 482.45,618.00 483.00,618.00 C483.55,618.00 484.01,619.69 484.02,621.75 C484.03,626.02 481.15,623.89 518.78,647.36 C537.93,659.30 541.16,661.04 540.88,659.25 C540.82,658.84 540.89,606.08 541.05,542.00 C541.21,477.92 541.63,428.20 542.00,431.50 C542.37,434.80 542.77,436.60 542.90,435.50 C543.13,433.59 543.17,433.59 543.88,435.38 C544.47,436.89 545.04,436.19 546.70,431.88 C547.84,428.92 550.44,422.67 552.48,418.00 C554.51,413.33 556.44,408.60 556.76,407.50 C557.07,406.40 558.30,403.92 559.48,402.00 C560.67,400.08 563.36,394.79 565.48,390.25 C567.59,385.71 569.65,382.00 570.05,382.00 C570.45,382.00 571.04,380.96 571.36,379.68 C571.68,378.41 572.86,376.31 573.98,375.02 C575.10,373.74 577.47,370.70 579.26,368.28 C581.04,365.86 583.55,362.56 584.83,360.95 C588.11,356.82 587.33,354.93 581.50,352.86 C576.59,351.13 577.56,351.09 633.00,350.80 L 689.50 350.50 L 689.77 328.25 L 690.04 306.00 L 648.52 306.00 C621.51,306.00 607.00,305.65 607.00,305.00 C607.00,304.45 608.13,304.00 609.52,304.00 C613.34,304.00 620.00,301.67 620.00,300.33 C620.00,299.68 620.56,298.55 621.25,297.82 C621.94,297.09 623.02,295.38 623.65,294.00 C633.70,272.17 633.91,267.80 625.00,266.74 C623.08,266.51 640.46,266.25 663.62,266.16 C709.88,265.98 710.49,266.05 718.04,272.03 C720.23,273.77 723.10,277.54 724.70,280.79 L 727.50 286.50 L 727.79 325.10 C728.08,362.17 728.00,363.91 726.00,369.27 C723.38,376.27 717.53,382.39 710.16,385.85 L 704.50 388.50 L 641.76 388.79 L 579.02 389.07 L 578.76 548.02 L 578.50 706.96 L 575.30 710.16 C572.54,712.92 571.29,713.41 566.30,713.66 C563.11,713.82 559.83,713.66 559.00,713.32 ZM 599.00 708.30 C598.17,708.00 596.26,706.60 594.75,705.19 L 592.00 702.63 L 592.00 634.76 C592.00,575.23 592.19,566.53 593.56,563.88 C594.42,562.22 602.97,553.15 612.56,543.71 L 630.00 526.56 L 630.00 503.97 L 630.00 481.37 L 626.13 479.19 C612.77,471.68 605.53,456.02 609.34,442.90 C612.71,431.31 620.94,423.51 633.09,420.40 C648.08,416.56 664.72,424.86 670.02,438.82 C672.90,446.38 672.71,456.94 669.58,463.66 C666.75,469.73 660.72,476.08 655.04,478.98 L 651.00 481.04 L 651.00 503.58 C651.00,517.03 650.54,527.93 649.87,530.61 C648.86,534.62 646.60,537.16 628.87,554.27 C613.72,568.90 608.88,574.16 608.47,576.47 C608.17,578.14 608.06,602.45 608.21,630.50 L 608.50 681.50 L 623.75 666.53 L 639.00 651.57 L 639.00 639.80 L 639.00 628.03 L 635.25 625.62 C625.69,619.48 620.06,610.35 620.02,600.93 C619.95,583.59 630.89,572.01 648.13,571.17 C654.20,570.88 656.70,571.21 660.36,572.84 C667.33,575.92 671.38,579.45 674.59,585.25 C677.13,589.83 677.50,591.51 677.48,598.50 C677.46,605.19 677.03,607.33 674.81,611.56 C671.81,617.28 666.04,622.92 660.05,625.98 L 656.00 628.04 L 655.99 640.77 C655.99,647.77 655.55,655.08 655.01,657.01 C654.27,659.67 648.20,666.34 629.72,684.76 C605.04,709.36 604.04,710.13 599.00,708.30 ZM 655.68 610.47 C661.07,606.94 663.27,599.48 660.59,593.84 C658.46,589.34 654.32,587.00 648.48,587.00 C644.31,587.00 643.30,587.46 639.76,591.01 C635.93,594.83 635.77,595.25 636.23,600.04 C637.21,610.29 647.53,615.82 655.68,610.47 ZM 648.50 458.43 C652.51,454.18 653.57,450.27 652.01,445.52 C648.04,433.49 629.79,434.96 627.43,447.50 C626.07,454.79 632.68,461.95 640.82,461.98 C644.48,462.00 645.64,461.46 648.50,458.43 Z" fill="rgba(227,35,239,1)"/>
</g>
</svg>